<svg width="314" height="185" viewBox="0 0 314 185" fill="none" xmlns="http://www.w3.org/2000/svg">
<path d="M277.378 178.566C271.054 178.557 264.842 176.889 259.363 173.729C253.884 170.569 249.331 166.027 246.156 160.556L224 122.187L258.077 63.1675C260.957 58.1792 262.877 52.6954 263.737 47L308.516 124.558C311.673 130.028 313.335 136.233 313.336 142.549C313.337 148.865 311.677 155.07 308.522 160.541C305.368 166.013 300.83 170.559 295.363 173.723C289.897 176.886 283.694 178.557 277.378 178.566L277.378 178.566Z" fill="#1858CD"/>
<path d="M40.9759 179.413C34.6595 179.405 28.4564 177.735 22.9892 174.572C17.522 171.409 12.983 166.863 9.82792 161.391C6.67284 155.919 5.01262 149.713 5.01392 143.397C5.01521 137.08 6.67797 130.875 9.8353 125.405L67.7552 25.085C67.8026 25.0034 67.847 24.9209 67.8895 24.8369C70.8182 19.0469 75.2573 14.156 80.7372 10.6814C86.217 7.20687 92.5341 5.27781 99.0202 5.09826C105.506 4.91871 111.92 6.49535 117.584 9.66144C123.248 12.8275 127.951 17.4654 131.195 23.0845L154.785 63.9448C155.224 64.7049 155.855 65.3361 156.615 65.7749C157.375 66.2137 158.237 66.4448 159.115 66.4448C159.993 66.4449 160.855 66.2139 161.615 65.7752C162.375 65.3364 163.006 64.7053 163.445 63.9453L187.085 23.0054C189.446 18.9092 192.591 15.3187 196.341 12.4393C200.091 9.55985 204.372 7.44807 208.939 6.22475C213.505 5.00143 218.268 4.69058 222.956 5.30997C227.643 5.92937 232.162 7.46687 236.254 9.83449C241.046 12.5878 245.131 16.4199 248.184 21.0269C248.412 21.3653 248.623 21.6846 248.825 22.0127C249.013 22.3145 249.183 22.6006 249.352 22.8897C249.44 23.0567 249.526 23.2012 249.605 23.3257C249.605 23.3257 249.887 23.812 249.892 23.8223C252.837 29.2342 254.342 35.3123 254.262 41.4733C254.183 47.6343 252.52 53.6713 249.435 59.0049L190.435 161.195C186.258 168.419 179.704 173.971 171.891 176.903C171.833 176.923 171.662 176.988 171.641 176.996C171.35 177.109 171.052 177.209 170.759 177.309L170.598 177.364C170.264 177.475 169.922 177.59 169.58 177.688C161.792 180.083 153.423 179.764 145.84 176.785C138.257 173.805 131.909 168.34 127.835 161.285L104.386 120.656C103.947 119.896 103.316 119.264 102.556 118.825C101.796 118.386 100.934 118.155 100.056 118.155H100.056C99.1779 118.155 98.3158 118.386 97.5557 118.825C96.7956 119.264 96.1644 119.895 95.7255 120.655L72.1952 161.405C69.0224 166.876 64.4692 171.419 58.9908 174.579C53.5123 177.739 47.3005 179.406 40.9759 179.413Z" fill="#1D2C46"/>
</svg>
